<?xml version="1.0" standalone="no"?>
<!DOCTYPE svg PUBLIC "-//W3C//DTD SVG 20010904//EN"
 "http://www.w3.org/TR/2001/REC-SVG-20010904/DTD/svg10.dtd">
<svg version="1.0" xmlns="http://www.w3.org/2000/svg"
 width="768.000000pt" height="768.000000pt" viewBox="0 0 768.000000 768.000000"
 preserveAspectRatio="xMidYMid meet">
<metadata>
Created by potrace 1.11, written by Peter Selinger 2001-2013
</metadata>
<g transform="translate(0.000000,768.000000) scale(0.100000,-0.100000)"
fill="#000000" stroke="none">
<path d="M5946 5838 c-9 -12 -16 -26 -16 -31 0 -5 -19 -50 -41 -101 -168 -370
-328 -830 -499 -1431 -147 -517 -174 -586 -335 -845 -52 -85 -115 -192 -138
-237 -39 -77 -41 -83 -25 -99 25 -26 41 -7 108 125 32 64 90 170 130 236 138
233 144 247 281 725 160 560 295 978 394 1215 100 242 149 346 156 333 4 -8
13 -55 19 -104 45 -364 210 -1281 264 -1463 93 -311 219 -538 387 -697 125
-117 321 -259 345 -250 22 8 2 40 -43 67 -21 13 -73 49 -115 81 -275 207 -411
415 -528 803 -63 209 -210 1055 -259 1493 -11 95 -25 179 -31 187 -18 21 -36
18 -54 -7z"/>
<path d="M2864 5568 c-14 -22 -241 -707 -293 -883 -28 -93 -68 -224 -91 -290
-22 -66 -61 -190 -86 -275 -72 -242 -201 -574 -245 -626 -6 -7 -9 -23 -7 -36
2 -17 10 -23 28 -23 21 0 30 10 54 60 39 81 159 412 197 543 17 59 68 226 114
372 46 146 91 292 100 325 39 143 209 635 216 623 4 -7 10 -38 14 -68 3 -30
22 -150 40 -266 89 -554 220 -1047 371 -1401 131 -307 273 -554 322 -561 31
-5 28 11 -16 71 -150 207 -327 612 -438 1007 -123 434 -234 1062 -234 1321 0
60 -4 99 -12 107 -15 15 -25 15 -34 0z"/>
<path d="M5373 1274 c-7 -18 -5 -22 56 -161 87 -197 104 -282 105 -518 1 -180
-4 -198 -74 -278 -51 -57 -179 -140 -260 -168 -83 -29 -240 -31 -345 -4 -98
24 -220 83 -312 150 -103 76 -269 244 -330 336 -47 71 -113 203 -113 227 0 14
-44 27 -59 17 -6 -3 -11 -16 -11 -28 -1 -62 -49 -187 -101 -262 -173 -251
-494 -316 -667 -136 -49 52 -96 142 -144 281 -32 94 -33 97 -33 275 0 99 4
192 8 206 8 26 -11 59 -33 59 -30 0 -37 -31 -39 -177 -3 -233 21 -347 114
-538 72 -150 163 -223 311 -248 126 -22 286 29 414 129 76 59 172 197 190 273
6 28 15 51 19 51 4 0 17 -21 29 -46 57 -117 247 -328 397 -442 233 -176 549
-238 760 -149 98 41 202 116 256 183 71 90 83 139 76 319 -9 194 -29 297 -88
445 -81 204 -109 249 -126 204z"/>
</g>
</svg>
